<?xml version="1.0" standalone="no"?>
<!DOCTYPE svg PUBLIC "-//W3C//DTD SVG 20010904//EN"
 "http://www.w3.org/TR/2001/REC-SVG-20010904/DTD/svg10.dtd">
<svg version="1.0" xmlns="http://www.w3.org/2000/svg"
 width="1280.000000pt" height="1158.000000pt" viewBox="0 0 1280.000000 1158.000000"
 preserveAspectRatio="xMidYMid meet">
<g transform="translate(0.000000,1158.000000) scale(0.100000,-0.100000)"
fill="#000000" stroke="none">
<path d="M3138 11575 c-2 -3 -42 -12 -88 -21 -114 -21 -219 -61 -374 -142
-595 -312 -1720 -1118 -2131 -1527 -115 -114 -408 -453 -463 -535 -43 -65 -82
-167 -82 -215 0 -91 102 -389 160 -469 50 -68 143 -131 332 -227 l180 -90 33
-72 c17 -40 120 -292 228 -562 235 -590 299 -741 426 -995 111 -222 193 -362
331 -570 445 -668 716 -1188 955 -1836 112 -303 200 -574 224 -689 43 -211 81
-751 81 -1150 1 -616 28 -828 154 -1187 218 -625 451 -963 792 -1154 171 -96
472 -155 631 -125 26 5 89 15 138 21 50 7 181 30 293 51 112 21 262 46 335 54
197 23 336 48 717 130 539 115 635 129 1050 146 253 10 705 2 1215 -21 561
-25 881 -32 1272 -27 505 7 675 20 1048 83 491 81 809 210 1095 441 100 81
307 294 464 478 176 205 202 232 324 338 216 186 263 251 307 425 18 70 18 75
1 139 -28 105 -60 157 -166 268 -60 62 -102 114 -105 131 -46 206 -93 302
-200 410 -44 44 -120 115 -170 157 -49 42 -132 115 -184 162 -52 46 -135 114
-185 149 -213 152 -601 361 -806 433 -335 119 -774 188 -1335 213 -676 29
-1294 -5 -1812 -100 -162 -30 -156 -31 -243 54 -104 102 -230 208 -311 262
-181 120 -414 183 -737 200 -121 6 -135 9 -147 28 -14 22 -58 113 -340 721
-244 526 -395 842 -560 1180 -168 344 -247 523 -422 965 -243 613 -281 693
-496 1057 -169 285 -231 396 -297 537 -139 293 -322 788 -474 1278 l-77 247
12 125 c28 275 -38 517 -182 671 -72 76 -143 118 -241 144 -72 20 -158 27
-170 16z"/>
</g>
</svg>
