<svg id="epm6gBhJxeZ1" xmlns="http://www.w3.org/2000/svg" xmlns:xlink="http://www.w3.org/1999/xlink" viewBox="0 0 350 480" shape-rendering="geometricPrecision" text-rendering="geometricPrecision"><rect id="epm6gBhJxeZ2" width="122.490954" height="229.442011" rx="0" ry="0" transform="matrix(1.319829 0 0 1.221453 6.21398 18.659984)" fill="rgb(210,219,237)" stroke="none" stroke-width="0"/><ellipse id="epm6gBhJxeZ3" rx="71.75776" ry="68.55837" transform="matrix(1 0 0 1 77.97174 298.912617)" fill="rgb(210,219,237)" stroke="none" stroke-width="0"/><rect id="epm6gBhJxeZ4" width="122.490954" height="229.442011" rx="0" ry="0" transform="matrix(0.535019 -1.050729 0.891128 0.453752 30.442586 349.431033)" fill="rgb(210,219,237)" stroke="none" stroke-width="0"/><ellipse id="epm6gBhJxeZ5" rx="71.75776" ry="68.55837" transform="matrix(1.060704 0 0 1.043196 267.672277 389.820198)" fill="rgb(210,219,237)" stroke="none" stroke-width="0"/><line id="epm6gBhJxeZ6" x1="0" y1="-41.135022" x2="0" y2="41.135022" transform="matrix(-1 0 0 0.606385 26.384586 56.632599)" fill="none" stroke="rgb(63,87,135)" stroke-width="3"/><line id="epm6gBhJxeZ7" x1="0" y1="-41.135022" x2="0" y2="41.135022" transform="matrix(-1 0 0 0.606385 52.384586 56.632599)" fill="none" stroke="rgb(63,87,135)" stroke-width="3"/><line id="epm6gBhJxeZ8" x1="0" y1="-41.135022" x2="0" y2="41.135022" transform="matrix(-1 0 0 0.606385 76.384586 56.632599)" fill="none" stroke="rgb(63,87,135)" stroke-width="3"/><line id="epm6gBhJxeZ9" x1="0" y1="-41.135022" x2="0" y2="41.135022" transform="matrix(-1 0 0 0.606385 100.384586 56.632599)" fill="none" stroke="rgb(63,87,135)" stroke-width="3"/><line id="epm6gBhJxeZ10" x1="0" y1="-41.135022" x2="0" y2="41.135022" transform="matrix(-1 0 0 0.606385 149.384586 56.632599)" fill="none" stroke="rgb(63,87,135)" stroke-width="3"/><line id="epm6gBhJxeZ11" x1="0" y1="-41.135022" x2="0" y2="41.135022" transform="matrix(-1 0 0 0.606385 124.384586 56.632599)" fill="none" stroke="rgb(63,87,135)" stroke-width="3"/><line id="epm6gBhJxeZ12" x1="-61.5" y1="0" x2="61.5" y2="0" transform="matrix(1.162945 0 0 -1 87.884586 90.576259)" fill="none" stroke="rgb(63,87,135)" stroke-width="3"/></svg>