<svg id="eDH389gyV2S1" xmlns="http://www.w3.org/2000/svg" xmlns:xlink="http://www.w3.org/1999/xlink" viewBox="0 0 350 480" shape-rendering="geometricPrecision" text-rendering="geometricPrecision"><rect id="eDH389gyV2S2" width="122.490954" height="229.442011" rx="0" ry="0" transform="matrix(1.319829 0 0 1.221453 6.213993 16.831169)" fill="none" fill-rule="evenodd" stroke="rgb(0,0,0)" stroke-width="1"/><ellipse id="eDH389gyV2S3" rx="71.75776" ry="68.55837" transform="matrix(1 0 0 1 77.97174 297.083802)" fill="none" stroke="rgb(58,52,52)" stroke-width="1"/><rect id="eDH389gyV2S4" width="122.490954" height="229.442011" rx="0" ry="0" transform="matrix(0.535019 -1.050729 0.891128 0.453752 40.001406 357.230228)" fill="none" stroke="rgb(46,42,42)" stroke-width="1"/><ellipse id="eDH389gyV2S5" rx="71.75776" ry="68.55837" transform="matrix(1.060704 0 0 1.043196 266.229427 389.820198)" fill="none" stroke="rgb(0,0,0)" stroke-width="1"/><line id="eDH389gyV2S6" x1="0" y1="-41.135022" x2="0" y2="41.135022" transform="matrix(-1 0 0 0.606385 26.384586 56.632599)" fill="none" stroke="rgb(63,87,135)" stroke-width="3"/><line id="eDH389gyV2S7" x1="0" y1="-41.135022" x2="0" y2="41.135022" transform="matrix(-1 0 0 0.606385 52.384586 56.632599)" fill="none" stroke="rgb(63,87,135)" stroke-width="3"/><line id="eDH389gyV2S8" x1="0" y1="-41.135022" x2="0" y2="41.135022" transform="matrix(-1 0 0 0.606385 76.384586 56.632599)" fill="none" stroke="rgb(63,87,135)" stroke-width="3"/><line id="eDH389gyV2S9" x1="0" y1="-41.135022" x2="0" y2="41.135022" transform="matrix(-1 0 0 0.606385 100.384586 56.632599)" fill="none" stroke="rgb(63,87,135)" stroke-width="3"/><line id="eDH389gyV2S10" x1="0" y1="-41.135022" x2="0" y2="41.135022" transform="matrix(-1 0 0 0.606385 149.384586 56.632599)" fill="none" stroke="rgb(63,87,135)" stroke-width="3"/><line id="eDH389gyV2S11" x1="0" y1="-41.135022" x2="0" y2="41.135022" transform="matrix(-1 0 0 0.606385 124.384586 56.632599)" fill="none" stroke="rgb(63,87,135)" stroke-width="3"/><line id="eDH389gyV2S12" x1="-61.5" y1="0" x2="61.5" y2="0" transform="matrix(1.162945 0 0 -1 87.884586 90.576259)" fill="none" stroke="rgb(63,87,135)" stroke-width="3"/><path id="eDH389gyV2S13" d="" fill="none" fill-rule="evenodd" stroke="rgb(63,87,135)" stroke-width="0.96"/></svg>